<mxfile host="app.diagrams.net" modified="2024-06-06T20:45:37.801Z" agent="Mozilla/5.0 (Windows NT 10.0; Win64; x64) AppleWebKit/537.36 (KHTML, like Gecko) Chrome/125.0.0.0 Safari/537.36" etag="bgPDKZLp63-o9SrCkX7R" version="24.5.1" type="github">
  <diagram name="第 1 页" id="bW7WHvQTRiZZSBbH0U0f">
    <mxGraphModel dx="2514" dy="868" grid="1" gridSize="10" guides="1" tooltips="1" connect="1" arrows="1" fold="1" page="1" pageScale="1" pageWidth="827" pageHeight="1169" math="0" shadow="0">
      <root>
        <mxCell id="0" />
        <mxCell id="1" parent="0" />
        <mxCell id="QmHlU4ZNDOlEz4AEPFPm-1" value="InstitutionController" style="swimlane;fontStyle=1;align=center;verticalAlign=top;childLayout=stackLayout;horizontal=1;startSize=24.476190476190474;horizontalStack=0;resizeParent=1;resizeParentMax=0;resizeLast=0;collapsible=0;marginBottom=0;fontSize=17;" vertex="1" parent="1">
          <mxGeometry x="29.5" y="196.32" width="895" height="259.99619047619046" as="geometry" />
        </mxCell>
        <mxCell id="QmHlU4ZNDOlEz4AEPFPm-2" style="line;strokeWidth=1;fillColor=none;align=left;verticalAlign=middle;spacingTop=-1;spacingLeft=3;spacingRight=3;rotatable=0;labelPosition=right;points=[];portConstraint=eastwest;strokeColor=inherit;fontSize=17;" vertex="1" parent="QmHlU4ZNDOlEz4AEPFPm-1">
          <mxGeometry y="24.476190476190474" width="895" height="8" as="geometry" />
        </mxCell>
        <mxCell id="QmHlU4ZNDOlEz4AEPFPm-3" value="+exportXls(HttpServletRequest, SysInstitution) : ModelAndView" style="text;strokeColor=none;fillColor=none;align=left;verticalAlign=top;spacingLeft=4;spacingRight=4;overflow=hidden;rotatable=0;points=[[0,0.5],[1,0.5]];portConstraint=eastwest;fontSize=17;" vertex="1" parent="QmHlU4ZNDOlEz4AEPFPm-1">
          <mxGeometry y="32.476190476190474" width="895" height="24" as="geometry" />
        </mxCell>
        <mxCell id="QmHlU4ZNDOlEz4AEPFPm-4" value="+add(JSONObject, HttpServletRequest) : Result&lt;String&gt;" style="text;strokeColor=none;fillColor=none;align=left;verticalAlign=top;spacingLeft=4;spacingRight=4;overflow=hidden;rotatable=0;points=[[0,0.5],[1,0.5]];portConstraint=eastwest;fontSize=17;" vertex="1" parent="QmHlU4ZNDOlEz4AEPFPm-1">
          <mxGeometry y="56.476190476190474" width="895" height="24" as="geometry" />
        </mxCell>
        <mxCell id="QmHlU4ZNDOlEz4AEPFPm-5" value="+queryPageListOrderByNumber(SysInstitution, Integer, Integer, HttpServletRequest) : Result&lt;IPage&lt;SysInstitution&gt;&gt;" style="text;strokeColor=none;fillColor=none;align=left;verticalAlign=top;spacingLeft=4;spacingRight=4;overflow=hidden;rotatable=0;points=[[0,0.5],[1,0.5]];portConstraint=eastwest;fontSize=17;" vertex="1" parent="QmHlU4ZNDOlEz4AEPFPm-1">
          <mxGeometry y="80.47619047619048" width="895" height="24" as="geometry" />
        </mxCell>
        <mxCell id="QmHlU4ZNDOlEz4AEPFPm-6" value="+deleteBatch(String) : Result&lt;String&gt;" style="text;strokeColor=none;fillColor=none;align=left;verticalAlign=top;spacingLeft=4;spacingRight=4;overflow=hidden;rotatable=0;points=[[0,0.5],[1,0.5]];portConstraint=eastwest;fontSize=17;" vertex="1" parent="QmHlU4ZNDOlEz4AEPFPm-1">
          <mxGeometry y="104.47619047619048" width="895" height="24" as="geometry" />
        </mxCell>
        <mxCell id="QmHlU4ZNDOlEz4AEPFPm-7" value="+importExcel(HttpServletRequest, HttpServletResponse) : Result&lt;?&gt;" style="text;strokeColor=none;fillColor=none;align=left;verticalAlign=top;spacingLeft=4;spacingRight=4;overflow=hidden;rotatable=0;points=[[0,0.5],[1,0.5]];portConstraint=eastwest;fontSize=17;" vertex="1" parent="QmHlU4ZNDOlEz4AEPFPm-1">
          <mxGeometry y="128.47619047619048" width="895" height="24" as="geometry" />
        </mxCell>
        <mxCell id="QmHlU4ZNDOlEz4AEPFPm-8" value="+queryPageList(SysInstitution, Integer, Integer, Integer, HttpServletRequest) : Result&lt;IPage&lt;JSONObject&gt;&gt;" style="text;strokeColor=none;fillColor=none;align=left;verticalAlign=top;spacingLeft=4;spacingRight=4;overflow=hidden;rotatable=0;points=[[0,0.5],[1,0.5]];portConstraint=eastwest;fontSize=17;" vertex="1" parent="QmHlU4ZNDOlEz4AEPFPm-1">
          <mxGeometry y="152.47619047619048" width="895" height="24" as="geometry" />
        </mxCell>
        <mxCell id="QmHlU4ZNDOlEz4AEPFPm-9" value="+edit(SysInstitution) : Result&lt;String&gt;" style="text;strokeColor=none;fillColor=none;align=left;verticalAlign=top;spacingLeft=4;spacingRight=4;overflow=hidden;rotatable=0;points=[[0,0.5],[1,0.5]];portConstraint=eastwest;fontSize=17;" vertex="1" parent="QmHlU4ZNDOlEz4AEPFPm-1">
          <mxGeometry y="176.47619047619048" width="895" height="24" as="geometry" />
        </mxCell>
        <mxCell id="QmHlU4ZNDOlEz4AEPFPm-10" value="+delete(String) : Result&lt;String&gt;" style="text;strokeColor=none;fillColor=none;align=left;verticalAlign=top;spacingLeft=4;spacingRight=4;overflow=hidden;rotatable=0;points=[[0,0.5],[1,0.5]];portConstraint=eastwest;fontSize=17;" vertex="1" parent="QmHlU4ZNDOlEz4AEPFPm-1">
          <mxGeometry y="200.47619047619048" width="895" height="24" as="geometry" />
        </mxCell>
        <mxCell id="QmHlU4ZNDOlEz4AEPFPm-11" value="+queryById(String) : Result&lt;SysInstitution&gt;" style="text;strokeColor=none;fillColor=none;align=left;verticalAlign=top;spacingLeft=4;spacingRight=4;overflow=hidden;rotatable=0;points=[[0,0.5],[1,0.5]];portConstraint=eastwest;fontSize=17;" vertex="1" parent="QmHlU4ZNDOlEz4AEPFPm-1">
          <mxGeometry y="224.47619047619048" width="895" height="35.52" as="geometry" />
        </mxCell>
        <mxCell id="QmHlU4ZNDOlEz4AEPFPm-12" value="Institution" style="swimlane;fontStyle=1;align=center;verticalAlign=top;childLayout=stackLayout;horizontal=1;startSize=24.58823529411765;horizontalStack=0;resizeParent=1;resizeParentMax=0;resizeLast=0;collapsible=0;marginBottom=0;fontSize=17;" vertex="1" parent="1">
          <mxGeometry x="70" y="700" width="221" height="439.99823529411765" as="geometry" />
        </mxCell>
        <mxCell id="QmHlU4ZNDOlEz4AEPFPm-13" value="- Integer status" style="text;strokeColor=none;fillColor=none;align=left;verticalAlign=top;spacingLeft=4;spacingRight=4;overflow=hidden;rotatable=0;points=[[0,0.5],[1,0.5]];portConstraint=eastwest;fontSize=17;" vertex="1" parent="QmHlU4ZNDOlEz4AEPFPm-12">
          <mxGeometry y="24.58823529411765" width="221" height="25" as="geometry" />
        </mxCell>
        <mxCell id="QmHlU4ZNDOlEz4AEPFPm-14" value="- String createBy" style="text;strokeColor=none;fillColor=none;align=left;verticalAlign=top;spacingLeft=4;spacingRight=4;overflow=hidden;rotatable=0;points=[[0,0.5],[1,0.5]];portConstraint=eastwest;fontSize=17;" vertex="1" parent="QmHlU4ZNDOlEz4AEPFPm-12">
          <mxGeometry y="49.58823529411765" width="221" height="25" as="geometry" />
        </mxCell>
        <mxCell id="QmHlU4ZNDOlEz4AEPFPm-15" value="- String region" style="text;strokeColor=none;fillColor=none;align=left;verticalAlign=top;spacingLeft=4;spacingRight=4;overflow=hidden;rotatable=0;points=[[0,0.5],[1,0.5]];portConstraint=eastwest;fontSize=17;" vertex="1" parent="QmHlU4ZNDOlEz4AEPFPm-12">
          <mxGeometry y="74.58823529411765" width="221" height="25" as="geometry" />
        </mxCell>
        <mxCell id="QmHlU4ZNDOlEz4AEPFPm-16" value="- String id" style="text;strokeColor=none;fillColor=none;align=left;verticalAlign=top;spacingLeft=4;spacingRight=4;overflow=hidden;rotatable=0;points=[[0,0.5],[1,0.5]];portConstraint=eastwest;fontSize=17;" vertex="1" parent="QmHlU4ZNDOlEz4AEPFPm-12">
          <mxGeometry y="99.58823529411765" width="221" height="25" as="geometry" />
        </mxCell>
        <mxCell id="QmHlU4ZNDOlEz4AEPFPm-17" value="- Date updateTime" style="text;strokeColor=none;fillColor=none;align=left;verticalAlign=top;spacingLeft=4;spacingRight=4;overflow=hidden;rotatable=0;points=[[0,0.5],[1,0.5]];portConstraint=eastwest;fontSize=17;" vertex="1" parent="QmHlU4ZNDOlEz4AEPFPm-12">
          <mxGeometry y="124.58823529411765" width="221" height="25" as="geometry" />
        </mxCell>
        <mxCell id="QmHlU4ZNDOlEz4AEPFPm-18" value="- String images" style="text;strokeColor=none;fillColor=none;align=left;verticalAlign=top;spacingLeft=4;spacingRight=4;overflow=hidden;rotatable=0;points=[[0,0.5],[1,0.5]];portConstraint=eastwest;fontSize=17;" vertex="1" parent="QmHlU4ZNDOlEz4AEPFPm-12">
          <mxGeometry y="149.58823529411765" width="221" height="25" as="geometry" />
        </mxCell>
        <mxCell id="QmHlU4ZNDOlEz4AEPFPm-19" value="- String no" style="text;strokeColor=none;fillColor=none;align=left;verticalAlign=top;spacingLeft=4;spacingRight=4;overflow=hidden;rotatable=0;points=[[0,0.5],[1,0.5]];portConstraint=eastwest;fontSize=17;" vertex="1" parent="QmHlU4ZNDOlEz4AEPFPm-12">
          <mxGeometry y="174.58823529411765" width="221" height="25" as="geometry" />
        </mxCell>
        <mxCell id="QmHlU4ZNDOlEz4AEPFPm-20" value="- String updateBy" style="text;strokeColor=none;fillColor=none;align=left;verticalAlign=top;spacingLeft=4;spacingRight=4;overflow=hidden;rotatable=0;points=[[0,0.5],[1,0.5]];portConstraint=eastwest;fontSize=17;" vertex="1" parent="QmHlU4ZNDOlEz4AEPFPm-12">
          <mxGeometry y="199.58823529411765" width="221" height="25" as="geometry" />
        </mxCell>
        <mxCell id="QmHlU4ZNDOlEz4AEPFPm-21" value="- String logo" style="text;strokeColor=none;fillColor=none;align=left;verticalAlign=top;spacingLeft=4;spacingRight=4;overflow=hidden;rotatable=0;points=[[0,0.5],[1,0.5]];portConstraint=eastwest;fontSize=17;" vertex="1" parent="QmHlU4ZNDOlEz4AEPFPm-12">
          <mxGeometry y="224.58823529411765" width="221" height="25" as="geometry" />
        </mxCell>
        <mxCell id="QmHlU4ZNDOlEz4AEPFPm-22" value="- String name" style="text;strokeColor=none;fillColor=none;align=left;verticalAlign=top;spacingLeft=4;spacingRight=4;overflow=hidden;rotatable=0;points=[[0,0.5],[1,0.5]];portConstraint=eastwest;fontSize=17;" vertex="1" parent="QmHlU4ZNDOlEz4AEPFPm-12">
          <mxGeometry y="249.58823529411765" width="221" height="25" as="geometry" />
        </mxCell>
        <mxCell id="QmHlU4ZNDOlEz4AEPFPm-23" value="- String describestr" style="text;strokeColor=none;fillColor=none;align=left;verticalAlign=top;spacingLeft=4;spacingRight=4;overflow=hidden;rotatable=0;points=[[0,0.5],[1,0.5]];portConstraint=eastwest;fontSize=17;" vertex="1" parent="QmHlU4ZNDOlEz4AEPFPm-12">
          <mxGeometry y="274.5882352941177" width="221" height="25" as="geometry" />
        </mxCell>
        <mxCell id="QmHlU4ZNDOlEz4AEPFPm-24" value="- Date createTime" style="text;strokeColor=none;fillColor=none;align=left;verticalAlign=top;spacingLeft=4;spacingRight=4;overflow=hidden;rotatable=0;points=[[0,0.5],[1,0.5]];portConstraint=eastwest;fontSize=17;" vertex="1" parent="QmHlU4ZNDOlEz4AEPFPm-12">
          <mxGeometry y="299.5882352941177" width="221" height="25" as="geometry" />
        </mxCell>
        <mxCell id="QmHlU4ZNDOlEz4AEPFPm-25" style="line;strokeWidth=1;fillColor=none;align=left;verticalAlign=middle;spacingTop=-1;spacingLeft=3;spacingRight=3;rotatable=0;labelPosition=right;points=[];portConstraint=eastwest;strokeColor=inherit;fontSize=17;" vertex="1" parent="QmHlU4ZNDOlEz4AEPFPm-12">
          <mxGeometry y="324.5882352941177" width="221" height="8" as="geometry" />
        </mxCell>
        <mxCell id="QmHlU4ZNDOlEz4AEPFPm-26" value="+equals(Object) : boolean" style="text;strokeColor=none;fillColor=none;align=left;verticalAlign=top;spacingLeft=4;spacingRight=4;overflow=hidden;rotatable=0;points=[[0,0.5],[1,0.5]];portConstraint=eastwest;fontSize=17;" vertex="1" parent="QmHlU4ZNDOlEz4AEPFPm-12">
          <mxGeometry y="332.5882352941177" width="221" height="25" as="geometry" />
        </mxCell>
        <mxCell id="QmHlU4ZNDOlEz4AEPFPm-27" value="+hashCode() : int" style="text;strokeColor=none;fillColor=none;align=left;verticalAlign=top;spacingLeft=4;spacingRight=4;overflow=hidden;rotatable=0;points=[[0,0.5],[1,0.5]];portConstraint=eastwest;fontSize=17;" vertex="1" parent="QmHlU4ZNDOlEz4AEPFPm-12">
          <mxGeometry y="357.5882352941177" width="221" height="25" as="geometry" />
        </mxCell>
        <mxCell id="QmHlU4ZNDOlEz4AEPFPm-28" value="+toString() : String" style="text;strokeColor=none;fillColor=none;align=left;verticalAlign=top;spacingLeft=4;spacingRight=4;overflow=hidden;rotatable=0;points=[[0,0.5],[1,0.5]];portConstraint=eastwest;fontSize=17;" vertex="1" parent="QmHlU4ZNDOlEz4AEPFPm-12">
          <mxGeometry y="382.5882352941177" width="221" height="25" as="geometry" />
        </mxCell>
        <mxCell id="QmHlU4ZNDOlEz4AEPFPm-29" value="#canEqual(Object) : boolean" style="text;strokeColor=none;fillColor=none;align=left;verticalAlign=top;spacingLeft=4;spacingRight=4;overflow=hidden;rotatable=0;points=[[0,0.5],[1,0.5]];portConstraint=eastwest;fontSize=17;" vertex="1" parent="QmHlU4ZNDOlEz4AEPFPm-12">
          <mxGeometry y="407.5882352941177" width="221" height="32.41" as="geometry" />
        </mxCell>
        <mxCell id="QmHlU4ZNDOlEz4AEPFPm-30" value="InstitutionService" style="swimlane;fontStyle=1;align=center;verticalAlign=top;childLayout=stackLayout;horizontal=1;startSize=24.63157894736842;horizontalStack=0;resizeParent=1;resizeParentMax=0;resizeLast=0;collapsible=0;marginBottom=0;fontSize=17;" vertex="1" parent="1">
          <mxGeometry x="-300" y="210" width="265" height="232.63157894736844" as="geometry" />
        </mxCell>
        <mxCell id="QmHlU4ZNDOlEz4AEPFPm-31" style="line;strokeWidth=1;fillColor=none;align=left;verticalAlign=middle;spacingTop=-1;spacingLeft=3;spacingRight=3;rotatable=0;labelPosition=right;points=[];portConstraint=eastwest;strokeColor=inherit;fontSize=17;" vertex="1" parent="QmHlU4ZNDOlEz4AEPFPm-30">
          <mxGeometry y="24.63157894736842" width="265" height="8" as="geometry" />
        </mxCell>
        <mxCell id="QmHlU4ZNDOlEz4AEPFPm-32" value="+getById(Serializable) : T" style="text;strokeColor=none;fillColor=none;align=left;verticalAlign=top;spacingLeft=4;spacingRight=4;overflow=hidden;rotatable=0;points=[[0,0.5],[1,0.5]];portConstraint=eastwest;fontSize=17;" vertex="1" parent="QmHlU4ZNDOlEz4AEPFPm-30">
          <mxGeometry y="32.631578947368425" width="265" height="25" as="geometry" />
        </mxCell>
        <mxCell id="QmHlU4ZNDOlEz4AEPFPm-33" value="+update(Wrapper&lt;T&gt;) : boolean" style="text;strokeColor=none;fillColor=none;align=left;verticalAlign=top;spacingLeft=4;spacingRight=4;overflow=hidden;rotatable=0;points=[[0,0.5],[1,0.5]];portConstraint=eastwest;fontSize=17;" vertex="1" parent="QmHlU4ZNDOlEz4AEPFPm-30">
          <mxGeometry y="57.631578947368425" width="265" height="25" as="geometry" />
        </mxCell>
        <mxCell id="QmHlU4ZNDOlEz4AEPFPm-34" value="+getOne(Wrapper&lt;T&gt;, boolean) : T" style="text;strokeColor=none;fillColor=none;align=left;verticalAlign=top;spacingLeft=4;spacingRight=4;overflow=hidden;rotatable=0;points=[[0,0.5],[1,0.5]];portConstraint=eastwest;fontSize=17;" vertex="1" parent="QmHlU4ZNDOlEz4AEPFPm-30">
          <mxGeometry y="82.63157894736842" width="265" height="25" as="geometry" />
        </mxCell>
        <mxCell id="QmHlU4ZNDOlEz4AEPFPm-35" value="+removeById(T) : boolean" style="text;strokeColor=none;fillColor=none;align=left;verticalAlign=top;spacingLeft=4;spacingRight=4;overflow=hidden;rotatable=0;points=[[0,0.5],[1,0.5]];portConstraint=eastwest;fontSize=17;" vertex="1" parent="QmHlU4ZNDOlEz4AEPFPm-30">
          <mxGeometry y="107.63157894736842" width="265" height="25" as="geometry" />
        </mxCell>
        <mxCell id="QmHlU4ZNDOlEz4AEPFPm-36" value="+updateById(T) : boolean" style="text;strokeColor=none;fillColor=none;align=left;verticalAlign=top;spacingLeft=4;spacingRight=4;overflow=hidden;rotatable=0;points=[[0,0.5],[1,0.5]];portConstraint=eastwest;fontSize=17;" vertex="1" parent="QmHlU4ZNDOlEz4AEPFPm-30">
          <mxGeometry y="132.63157894736844" width="265" height="25" as="geometry" />
        </mxCell>
        <mxCell id="QmHlU4ZNDOlEz4AEPFPm-37" value="+save(T) : boolean" style="text;strokeColor=none;fillColor=none;align=left;verticalAlign=top;spacingLeft=4;spacingRight=4;overflow=hidden;rotatable=0;points=[[0,0.5],[1,0.5]];portConstraint=eastwest;fontSize=17;" vertex="1" parent="QmHlU4ZNDOlEz4AEPFPm-30">
          <mxGeometry y="157.63157894736844" width="265" height="25" as="geometry" />
        </mxCell>
        <mxCell id="QmHlU4ZNDOlEz4AEPFPm-38" value="+query() : QueryChainWrapper&lt;T&gt;" style="text;strokeColor=none;fillColor=none;align=left;verticalAlign=top;spacingLeft=4;spacingRight=4;overflow=hidden;rotatable=0;points=[[0,0.5],[1,0.5]];portConstraint=eastwest;fontSize=17;" vertex="1" parent="QmHlU4ZNDOlEz4AEPFPm-30">
          <mxGeometry y="182.63157894736844" width="265" height="25" as="geometry" />
        </mxCell>
        <mxCell id="QmHlU4ZNDOlEz4AEPFPm-39" value="+update(T, Wrapper&lt;T&gt;) : boolean" style="text;strokeColor=none;fillColor=none;align=left;verticalAlign=top;spacingLeft=4;spacingRight=4;overflow=hidden;rotatable=0;points=[[0,0.5],[1,0.5]];portConstraint=eastwest;fontSize=17;" vertex="1" parent="QmHlU4ZNDOlEz4AEPFPm-30">
          <mxGeometry y="207.63157894736844" width="265" height="25" as="geometry" />
        </mxCell>
        <mxCell id="QmHlU4ZNDOlEz4AEPFPm-40" value="InstitutionMapper" style="swimlane;fontStyle=1;align=center;verticalAlign=top;childLayout=stackLayout;horizontal=1;startSize=24.24;horizontalStack=0;resizeParent=1;resizeParentMax=0;resizeLast=0;collapsible=0;marginBottom=0;fontSize=17;" vertex="1" parent="1">
          <mxGeometry x="-356.5" y="710" width="386" height="300" as="geometry" />
        </mxCell>
        <mxCell id="QmHlU4ZNDOlEz4AEPFPm-41" style="line;strokeWidth=1;fillColor=none;align=left;verticalAlign=middle;spacingTop=-1;spacingLeft=3;spacingRight=3;rotatable=0;labelPosition=right;points=[];portConstraint=eastwest;strokeColor=inherit;fontSize=17;" vertex="1" parent="QmHlU4ZNDOlEz4AEPFPm-40">
          <mxGeometry y="24.24" width="386" height="8" as="geometry" />
        </mxCell>
        <mxCell id="QmHlU4ZNDOlEz4AEPFPm-42" value="+delete(Wrapper&lt;T&gt;) : int" style="text;strokeColor=none;fillColor=none;align=left;verticalAlign=top;spacingLeft=4;spacingRight=4;overflow=hidden;rotatable=0;points=[[0,0.5],[1,0.5]];portConstraint=eastwest;fontSize=17;" vertex="1" parent="QmHlU4ZNDOlEz4AEPFPm-40">
          <mxGeometry y="32.239999999999995" width="386" height="24" as="geometry" />
        </mxCell>
        <mxCell id="QmHlU4ZNDOlEz4AEPFPm-43" value="+selectBatchIds(Collection&lt;Serializable&lt;) : List&gt;T&gt;" style="text;strokeColor=none;fillColor=none;align=left;verticalAlign=top;spacingLeft=4;spacingRight=4;overflow=hidden;rotatable=0;points=[[0,0.5],[1,0.5]];portConstraint=eastwest;fontSize=17;" vertex="1" parent="QmHlU4ZNDOlEz4AEPFPm-40">
          <mxGeometry y="56.239999999999995" width="386" height="24" as="geometry" />
        </mxCell>
        <mxCell id="QmHlU4ZNDOlEz4AEPFPm-44" value="+deleteBatchIds(Collection&lt;?&gt;) : int" style="text;strokeColor=none;fillColor=none;align=left;verticalAlign=top;spacingLeft=4;spacingRight=4;overflow=hidden;rotatable=0;points=[[0,0.5],[1,0.5]];portConstraint=eastwest;fontSize=17;" vertex="1" parent="QmHlU4ZNDOlEz4AEPFPm-40">
          <mxGeometry y="80.24" width="386" height="24" as="geometry" />
        </mxCell>
        <mxCell id="QmHlU4ZNDOlEz4AEPFPm-45" value="+selectById(Serializable) : T" style="text;strokeColor=none;fillColor=none;align=left;verticalAlign=top;spacingLeft=4;spacingRight=4;overflow=hidden;rotatable=0;points=[[0,0.5],[1,0.5]];portConstraint=eastwest;fontSize=17;" vertex="1" parent="QmHlU4ZNDOlEz4AEPFPm-40">
          <mxGeometry y="104.24" width="386" height="24" as="geometry" />
        </mxCell>
        <mxCell id="QmHlU4ZNDOlEz4AEPFPm-46" value="+insert(T) : int" style="text;strokeColor=none;fillColor=none;align=left;verticalAlign=top;spacingLeft=4;spacingRight=4;overflow=hidden;rotatable=0;points=[[0,0.5],[1,0.5]];portConstraint=eastwest;fontSize=17;" vertex="1" parent="QmHlU4ZNDOlEz4AEPFPm-40">
          <mxGeometry y="128.24" width="386" height="24" as="geometry" />
        </mxCell>
        <mxCell id="QmHlU4ZNDOlEz4AEPFPm-47" value="+selectOne(Wrapper&lt;T&gt;) : T" style="text;strokeColor=none;fillColor=none;align=left;verticalAlign=top;spacingLeft=4;spacingRight=4;overflow=hidden;rotatable=0;points=[[0,0.5],[1,0.5]];portConstraint=eastwest;fontSize=17;" vertex="1" parent="QmHlU4ZNDOlEz4AEPFPm-40">
          <mxGeometry y="152.24" width="386" height="24" as="geometry" />
        </mxCell>
        <mxCell id="QmHlU4ZNDOlEz4AEPFPm-48" value="+deleteById(T) : int" style="text;strokeColor=none;fillColor=none;align=left;verticalAlign=top;spacingLeft=4;spacingRight=4;overflow=hidden;rotatable=0;points=[[0,0.5],[1,0.5]];portConstraint=eastwest;fontSize=17;" vertex="1" parent="QmHlU4ZNDOlEz4AEPFPm-40">
          <mxGeometry y="176.24" width="386" height="24" as="geometry" />
        </mxCell>
        <mxCell id="QmHlU4ZNDOlEz4AEPFPm-49" value="+selectList(Wrapper&lt;T&lt;) : List&gt;T&gt;" style="text;strokeColor=none;fillColor=none;align=left;verticalAlign=top;spacingLeft=4;spacingRight=4;overflow=hidden;rotatable=0;points=[[0,0.5],[1,0.5]];portConstraint=eastwest;fontSize=17;" vertex="1" parent="QmHlU4ZNDOlEz4AEPFPm-40">
          <mxGeometry y="200.24" width="386" height="24" as="geometry" />
        </mxCell>
        <mxCell id="QmHlU4ZNDOlEz4AEPFPm-50" value="+deleteById(Serializable) : int" style="text;strokeColor=none;fillColor=none;align=left;verticalAlign=top;spacingLeft=4;spacingRight=4;overflow=hidden;rotatable=0;points=[[0,0.5],[1,0.5]];portConstraint=eastwest;fontSize=17;" vertex="1" parent="QmHlU4ZNDOlEz4AEPFPm-40">
          <mxGeometry y="224.24" width="386" height="24" as="geometry" />
        </mxCell>
        <mxCell id="QmHlU4ZNDOlEz4AEPFPm-51" value="+updateById(T) : int" style="text;strokeColor=none;fillColor=none;align=left;verticalAlign=top;spacingLeft=4;spacingRight=4;overflow=hidden;rotatable=0;points=[[0,0.5],[1,0.5]];portConstraint=eastwest;fontSize=17;" vertex="1" parent="QmHlU4ZNDOlEz4AEPFPm-40">
          <mxGeometry y="248.24" width="386" height="24" as="geometry" />
        </mxCell>
        <mxCell id="QmHlU4ZNDOlEz4AEPFPm-52" value="+update(T, Wrapper&lt;T&gt;) : int" style="text;strokeColor=none;fillColor=none;align=left;verticalAlign=top;spacingLeft=4;spacingRight=4;overflow=hidden;rotatable=0;points=[[0,0.5],[1,0.5]];portConstraint=eastwest;fontSize=17;" vertex="1" parent="QmHlU4ZNDOlEz4AEPFPm-40">
          <mxGeometry y="272.24" width="386" height="27.76" as="geometry" />
        </mxCell>
        <mxCell id="QmHlU4ZNDOlEz4AEPFPm-53" value="UserService" style="swimlane;fontStyle=1;align=center;verticalAlign=top;childLayout=stackLayout;horizontal=1;startSize=24.63157894736842;horizontalStack=0;resizeParent=1;resizeParentMax=0;resizeLast=0;collapsible=0;marginBottom=0;fontSize=17;" vertex="1" parent="1">
          <mxGeometry x="975" y="210" width="265" height="232.63157894736844" as="geometry" />
        </mxCell>
        <mxCell id="QmHlU4ZNDOlEz4AEPFPm-54" style="line;strokeWidth=1;fillColor=none;align=left;verticalAlign=middle;spacingTop=-1;spacingLeft=3;spacingRight=3;rotatable=0;labelPosition=right;points=[];portConstraint=eastwest;strokeColor=inherit;fontSize=17;" vertex="1" parent="QmHlU4ZNDOlEz4AEPFPm-53">
          <mxGeometry y="24.63157894736842" width="265" height="8" as="geometry" />
        </mxCell>
        <mxCell id="QmHlU4ZNDOlEz4AEPFPm-55" value="+getById(Serializable) : T" style="text;strokeColor=none;fillColor=none;align=left;verticalAlign=top;spacingLeft=4;spacingRight=4;overflow=hidden;rotatable=0;points=[[0,0.5],[1,0.5]];portConstraint=eastwest;fontSize=17;" vertex="1" parent="QmHlU4ZNDOlEz4AEPFPm-53">
          <mxGeometry y="32.631578947368425" width="265" height="25" as="geometry" />
        </mxCell>
        <mxCell id="QmHlU4ZNDOlEz4AEPFPm-56" value="+update(Wrapper&lt;T&gt;) : boolean" style="text;strokeColor=none;fillColor=none;align=left;verticalAlign=top;spacingLeft=4;spacingRight=4;overflow=hidden;rotatable=0;points=[[0,0.5],[1,0.5]];portConstraint=eastwest;fontSize=17;" vertex="1" parent="QmHlU4ZNDOlEz4AEPFPm-53">
          <mxGeometry y="57.631578947368425" width="265" height="25" as="geometry" />
        </mxCell>
        <mxCell id="QmHlU4ZNDOlEz4AEPFPm-57" value="+getOne(Wrapper&lt;T&gt;, boolean) : T" style="text;strokeColor=none;fillColor=none;align=left;verticalAlign=top;spacingLeft=4;spacingRight=4;overflow=hidden;rotatable=0;points=[[0,0.5],[1,0.5]];portConstraint=eastwest;fontSize=17;" vertex="1" parent="QmHlU4ZNDOlEz4AEPFPm-53">
          <mxGeometry y="82.63157894736842" width="265" height="25" as="geometry" />
        </mxCell>
        <mxCell id="QmHlU4ZNDOlEz4AEPFPm-58" value="+removeById(T) : boolean" style="text;strokeColor=none;fillColor=none;align=left;verticalAlign=top;spacingLeft=4;spacingRight=4;overflow=hidden;rotatable=0;points=[[0,0.5],[1,0.5]];portConstraint=eastwest;fontSize=17;" vertex="1" parent="QmHlU4ZNDOlEz4AEPFPm-53">
          <mxGeometry y="107.63157894736842" width="265" height="25" as="geometry" />
        </mxCell>
        <mxCell id="QmHlU4ZNDOlEz4AEPFPm-59" value="+updateById(T) : boolean" style="text;strokeColor=none;fillColor=none;align=left;verticalAlign=top;spacingLeft=4;spacingRight=4;overflow=hidden;rotatable=0;points=[[0,0.5],[1,0.5]];portConstraint=eastwest;fontSize=17;" vertex="1" parent="QmHlU4ZNDOlEz4AEPFPm-53">
          <mxGeometry y="132.63157894736844" width="265" height="25" as="geometry" />
        </mxCell>
        <mxCell id="QmHlU4ZNDOlEz4AEPFPm-60" value="+save(T) : boolean" style="text;strokeColor=none;fillColor=none;align=left;verticalAlign=top;spacingLeft=4;spacingRight=4;overflow=hidden;rotatable=0;points=[[0,0.5],[1,0.5]];portConstraint=eastwest;fontSize=17;" vertex="1" parent="QmHlU4ZNDOlEz4AEPFPm-53">
          <mxGeometry y="157.63157894736844" width="265" height="25" as="geometry" />
        </mxCell>
        <mxCell id="QmHlU4ZNDOlEz4AEPFPm-61" value="+query() : QueryChainWrapper&lt;T&gt;" style="text;strokeColor=none;fillColor=none;align=left;verticalAlign=top;spacingLeft=4;spacingRight=4;overflow=hidden;rotatable=0;points=[[0,0.5],[1,0.5]];portConstraint=eastwest;fontSize=17;" vertex="1" parent="QmHlU4ZNDOlEz4AEPFPm-53">
          <mxGeometry y="182.63157894736844" width="265" height="25" as="geometry" />
        </mxCell>
        <mxCell id="QmHlU4ZNDOlEz4AEPFPm-62" value="+update(T, Wrapper&lt;T&gt;) : boolean" style="text;strokeColor=none;fillColor=none;align=left;verticalAlign=top;spacingLeft=4;spacingRight=4;overflow=hidden;rotatable=0;points=[[0,0.5],[1,0.5]];portConstraint=eastwest;fontSize=17;" vertex="1" parent="QmHlU4ZNDOlEz4AEPFPm-53">
          <mxGeometry y="207.63157894736844" width="265" height="25" as="geometry" />
        </mxCell>
        <mxCell id="QmHlU4ZNDOlEz4AEPFPm-63" value="User" style="swimlane;fontStyle=1;align=center;verticalAlign=top;childLayout=stackLayout;horizontal=1;startSize=24.285714285714285;horizontalStack=0;resizeParent=1;resizeParentMax=0;resizeLast=0;collapsible=0;marginBottom=0;fontSize=17;" vertex="1" parent="1">
          <mxGeometry x="606" y="640" width="221" height="519.9957142857143" as="geometry" />
        </mxCell>
        <mxCell id="QmHlU4ZNDOlEz4AEPFPm-64" value="- Date updateTime" style="text;strokeColor=none;fillColor=none;align=left;verticalAlign=top;spacingLeft=4;spacingRight=4;overflow=hidden;rotatable=0;points=[[0,0.5],[1,0.5]];portConstraint=eastwest;fontSize=17;" vertex="1" parent="QmHlU4ZNDOlEz4AEPFPm-63">
          <mxGeometry y="24.285714285714285" width="221" height="24" as="geometry" />
        </mxCell>
        <mxCell id="QmHlU4ZNDOlEz4AEPFPm-65" value="- String avatar" style="text;strokeColor=none;fillColor=none;align=left;verticalAlign=top;spacingLeft=4;spacingRight=4;overflow=hidden;rotatable=0;points=[[0,0.5],[1,0.5]];portConstraint=eastwest;fontSize=17;" vertex="1" parent="QmHlU4ZNDOlEz4AEPFPm-63">
          <mxGeometry y="48.285714285714285" width="221" height="24" as="geometry" />
        </mxCell>
        <mxCell id="QmHlU4ZNDOlEz4AEPFPm-66" value="- String email" style="text;strokeColor=none;fillColor=none;align=left;verticalAlign=top;spacingLeft=4;spacingRight=4;overflow=hidden;rotatable=0;points=[[0,0.5],[1,0.5]];portConstraint=eastwest;fontSize=17;" vertex="1" parent="QmHlU4ZNDOlEz4AEPFPm-63">
          <mxGeometry y="72.28571428571428" width="221" height="24" as="geometry" />
        </mxCell>
        <mxCell id="QmHlU4ZNDOlEz4AEPFPm-67" value="- String address" style="text;strokeColor=none;fillColor=none;align=left;verticalAlign=top;spacingLeft=4;spacingRight=4;overflow=hidden;rotatable=0;points=[[0,0.5],[1,0.5]];portConstraint=eastwest;fontSize=17;" vertex="1" parent="QmHlU4ZNDOlEz4AEPFPm-63">
          <mxGeometry y="96.28571428571428" width="221" height="24" as="geometry" />
        </mxCell>
        <mxCell id="QmHlU4ZNDOlEz4AEPFPm-68" value="- Date birthday" style="text;strokeColor=none;fillColor=none;align=left;verticalAlign=top;spacingLeft=4;spacingRight=4;overflow=hidden;rotatable=0;points=[[0,0.5],[1,0.5]];portConstraint=eastwest;fontSize=17;" vertex="1" parent="QmHlU4ZNDOlEz4AEPFPm-63">
          <mxGeometry y="120.28571428571428" width="221" height="24" as="geometry" />
        </mxCell>
        <mxCell id="QmHlU4ZNDOlEz4AEPFPm-69" value="- String salt" style="text;strokeColor=none;fillColor=none;align=left;verticalAlign=top;spacingLeft=4;spacingRight=4;overflow=hidden;rotatable=0;points=[[0,0.5],[1,0.5]];portConstraint=eastwest;fontSize=17;" vertex="1" parent="QmHlU4ZNDOlEz4AEPFPm-63">
          <mxGeometry y="144.28571428571428" width="221" height="24" as="geometry" />
        </mxCell>
        <mxCell id="QmHlU4ZNDOlEz4AEPFPm-70" value="- String phone" style="text;strokeColor=none;fillColor=none;align=left;verticalAlign=top;spacingLeft=4;spacingRight=4;overflow=hidden;rotatable=0;points=[[0,0.5],[1,0.5]];portConstraint=eastwest;fontSize=17;" vertex="1" parent="QmHlU4ZNDOlEz4AEPFPm-63">
          <mxGeometry y="168.28571428571428" width="221" height="24" as="geometry" />
        </mxCell>
        <mxCell id="QmHlU4ZNDOlEz4AEPFPm-71" value="- String createBy" style="text;strokeColor=none;fillColor=none;align=left;verticalAlign=top;spacingLeft=4;spacingRight=4;overflow=hidden;rotatable=0;points=[[0,0.5],[1,0.5]];portConstraint=eastwest;fontSize=17;" vertex="1" parent="QmHlU4ZNDOlEz4AEPFPm-63">
          <mxGeometry y="192.28571428571428" width="221" height="24" as="geometry" />
        </mxCell>
        <mxCell id="QmHlU4ZNDOlEz4AEPFPm-72" value="- String password" style="text;strokeColor=none;fillColor=none;align=left;verticalAlign=top;spacingLeft=4;spacingRight=4;overflow=hidden;rotatable=0;points=[[0,0.5],[1,0.5]];portConstraint=eastwest;fontSize=17;" vertex="1" parent="QmHlU4ZNDOlEz4AEPFPm-63">
          <mxGeometry y="216.28571428571428" width="221" height="24" as="geometry" />
        </mxCell>
        <mxCell id="QmHlU4ZNDOlEz4AEPFPm-73" value="- Integer sex" style="text;strokeColor=none;fillColor=none;align=left;verticalAlign=top;spacingLeft=4;spacingRight=4;overflow=hidden;rotatable=0;points=[[0,0.5],[1,0.5]];portConstraint=eastwest;fontSize=17;" vertex="1" parent="QmHlU4ZNDOlEz4AEPFPm-63">
          <mxGeometry y="240.28571428571428" width="221" height="24" as="geometry" />
        </mxCell>
        <mxCell id="QmHlU4ZNDOlEz4AEPFPm-74" value="- Date createTime" style="text;strokeColor=none;fillColor=none;align=left;verticalAlign=top;spacingLeft=4;spacingRight=4;overflow=hidden;rotatable=0;points=[[0,0.5],[1,0.5]];portConstraint=eastwest;fontSize=17;" vertex="1" parent="QmHlU4ZNDOlEz4AEPFPm-63">
          <mxGeometry y="264.2857142857143" width="221" height="24" as="geometry" />
        </mxCell>
        <mxCell id="QmHlU4ZNDOlEz4AEPFPm-75" value="- Integer serviceDuration" style="text;strokeColor=none;fillColor=none;align=left;verticalAlign=top;spacingLeft=4;spacingRight=4;overflow=hidden;rotatable=0;points=[[0,0.5],[1,0.5]];portConstraint=eastwest;fontSize=17;" vertex="1" parent="QmHlU4ZNDOlEz4AEPFPm-63">
          <mxGeometry y="288.2857142857143" width="221" height="24" as="geometry" />
        </mxCell>
        <mxCell id="QmHlU4ZNDOlEz4AEPFPm-76" value="- String realname" style="text;strokeColor=none;fillColor=none;align=left;verticalAlign=top;spacingLeft=4;spacingRight=4;overflow=hidden;rotatable=0;points=[[0,0.5],[1,0.5]];portConstraint=eastwest;fontSize=17;" vertex="1" parent="QmHlU4ZNDOlEz4AEPFPm-63">
          <mxGeometry y="312.2857142857143" width="221" height="24" as="geometry" />
        </mxCell>
        <mxCell id="QmHlU4ZNDOlEz4AEPFPm-77" value="- String id" style="text;strokeColor=none;fillColor=none;align=left;verticalAlign=top;spacingLeft=4;spacingRight=4;overflow=hidden;rotatable=0;points=[[0,0.5],[1,0.5]];portConstraint=eastwest;fontSize=17;" vertex="1" parent="QmHlU4ZNDOlEz4AEPFPm-63">
          <mxGeometry y="336.2857142857143" width="221" height="24" as="geometry" />
        </mxCell>
        <mxCell id="QmHlU4ZNDOlEz4AEPFPm-78" value="- String updateBy" style="text;strokeColor=none;fillColor=none;align=left;verticalAlign=top;spacingLeft=4;spacingRight=4;overflow=hidden;rotatable=0;points=[[0,0.5],[1,0.5]];portConstraint=eastwest;fontSize=17;" vertex="1" parent="QmHlU4ZNDOlEz4AEPFPm-63">
          <mxGeometry y="360.2857142857143" width="221" height="24" as="geometry" />
        </mxCell>
        <mxCell id="QmHlU4ZNDOlEz4AEPFPm-79" value="- String username" style="text;strokeColor=none;fillColor=none;align=left;verticalAlign=top;spacingLeft=4;spacingRight=4;overflow=hidden;rotatable=0;points=[[0,0.5],[1,0.5]];portConstraint=eastwest;fontSize=17;" vertex="1" parent="QmHlU4ZNDOlEz4AEPFPm-63">
          <mxGeometry y="384.2857142857143" width="221" height="24" as="geometry" />
        </mxCell>
        <mxCell id="QmHlU4ZNDOlEz4AEPFPm-80" style="line;strokeWidth=1;fillColor=none;align=left;verticalAlign=middle;spacingTop=-1;spacingLeft=3;spacingRight=3;rotatable=0;labelPosition=right;points=[];portConstraint=eastwest;strokeColor=inherit;fontSize=17;" vertex="1" parent="QmHlU4ZNDOlEz4AEPFPm-63">
          <mxGeometry y="408.2857142857143" width="221" height="8" as="geometry" />
        </mxCell>
        <mxCell id="QmHlU4ZNDOlEz4AEPFPm-81" value="+toString() : String" style="text;strokeColor=none;fillColor=none;align=left;verticalAlign=top;spacingLeft=4;spacingRight=4;overflow=hidden;rotatable=0;points=[[0,0.5],[1,0.5]];portConstraint=eastwest;fontSize=17;" vertex="1" parent="QmHlU4ZNDOlEz4AEPFPm-63">
          <mxGeometry y="416.2857142857143" width="221" height="24" as="geometry" />
        </mxCell>
        <mxCell id="QmHlU4ZNDOlEz4AEPFPm-82" value="+hashCode() : int" style="text;strokeColor=none;fillColor=none;align=left;verticalAlign=top;spacingLeft=4;spacingRight=4;overflow=hidden;rotatable=0;points=[[0,0.5],[1,0.5]];portConstraint=eastwest;fontSize=17;" vertex="1" parent="QmHlU4ZNDOlEz4AEPFPm-63">
          <mxGeometry y="440.2857142857143" width="221" height="24" as="geometry" />
        </mxCell>
        <mxCell id="QmHlU4ZNDOlEz4AEPFPm-83" value="+equals(Object) : boolean" style="text;strokeColor=none;fillColor=none;align=left;verticalAlign=top;spacingLeft=4;spacingRight=4;overflow=hidden;rotatable=0;points=[[0,0.5],[1,0.5]];portConstraint=eastwest;fontSize=17;" vertex="1" parent="QmHlU4ZNDOlEz4AEPFPm-63">
          <mxGeometry y="464.2857142857143" width="221" height="24" as="geometry" />
        </mxCell>
        <mxCell id="QmHlU4ZNDOlEz4AEPFPm-84" value="#canEqual(Object) : boolean" style="text;strokeColor=none;fillColor=none;align=left;verticalAlign=top;spacingLeft=4;spacingRight=4;overflow=hidden;rotatable=0;points=[[0,0.5],[1,0.5]];portConstraint=eastwest;fontSize=17;" vertex="1" parent="QmHlU4ZNDOlEz4AEPFPm-63">
          <mxGeometry y="488.2857142857143" width="221" height="31.71" as="geometry" />
        </mxCell>
        <mxCell id="QmHlU4ZNDOlEz4AEPFPm-85" value="UserMapper" style="swimlane;fontStyle=1;align=center;verticalAlign=top;childLayout=stackLayout;horizontal=1;startSize=24.24;horizontalStack=0;resizeParent=1;resizeParentMax=0;resizeLast=0;collapsible=0;marginBottom=0;fontSize=17;" vertex="1" parent="1">
          <mxGeometry x="900" y="710" width="387" height="300" as="geometry" />
        </mxCell>
        <mxCell id="QmHlU4ZNDOlEz4AEPFPm-86" style="line;strokeWidth=1;fillColor=none;align=left;verticalAlign=middle;spacingTop=-1;spacingLeft=3;spacingRight=3;rotatable=0;labelPosition=right;points=[];portConstraint=eastwest;strokeColor=inherit;fontSize=17;" vertex="1" parent="QmHlU4ZNDOlEz4AEPFPm-85">
          <mxGeometry y="24.24" width="387" height="8" as="geometry" />
        </mxCell>
        <mxCell id="QmHlU4ZNDOlEz4AEPFPm-87" value="+delete(Wrapper&lt;T&gt;) : int" style="text;strokeColor=none;fillColor=none;align=left;verticalAlign=top;spacingLeft=4;spacingRight=4;overflow=hidden;rotatable=0;points=[[0,0.5],[1,0.5]];portConstraint=eastwest;fontSize=17;" vertex="1" parent="QmHlU4ZNDOlEz4AEPFPm-85">
          <mxGeometry y="32.239999999999995" width="387" height="24" as="geometry" />
        </mxCell>
        <mxCell id="QmHlU4ZNDOlEz4AEPFPm-88" value="+selectBatchIds(Collection&lt;Serializable&lt;) : List&gt;T&gt;" style="text;strokeColor=none;fillColor=none;align=left;verticalAlign=top;spacingLeft=4;spacingRight=4;overflow=hidden;rotatable=0;points=[[0,0.5],[1,0.5]];portConstraint=eastwest;fontSize=17;" vertex="1" parent="QmHlU4ZNDOlEz4AEPFPm-85">
          <mxGeometry y="56.239999999999995" width="387" height="24" as="geometry" />
        </mxCell>
        <mxCell id="QmHlU4ZNDOlEz4AEPFPm-89" value="+deleteBatchIds(Collection&lt;?&gt;) : int" style="text;strokeColor=none;fillColor=none;align=left;verticalAlign=top;spacingLeft=4;spacingRight=4;overflow=hidden;rotatable=0;points=[[0,0.5],[1,0.5]];portConstraint=eastwest;fontSize=17;" vertex="1" parent="QmHlU4ZNDOlEz4AEPFPm-85">
          <mxGeometry y="80.24" width="387" height="24" as="geometry" />
        </mxCell>
        <mxCell id="QmHlU4ZNDOlEz4AEPFPm-90" value="+selectById(Serializable) : T" style="text;strokeColor=none;fillColor=none;align=left;verticalAlign=top;spacingLeft=4;spacingRight=4;overflow=hidden;rotatable=0;points=[[0,0.5],[1,0.5]];portConstraint=eastwest;fontSize=17;" vertex="1" parent="QmHlU4ZNDOlEz4AEPFPm-85">
          <mxGeometry y="104.24" width="387" height="24" as="geometry" />
        </mxCell>
        <mxCell id="QmHlU4ZNDOlEz4AEPFPm-91" value="+insert(T) : int" style="text;strokeColor=none;fillColor=none;align=left;verticalAlign=top;spacingLeft=4;spacingRight=4;overflow=hidden;rotatable=0;points=[[0,0.5],[1,0.5]];portConstraint=eastwest;fontSize=17;" vertex="1" parent="QmHlU4ZNDOlEz4AEPFPm-85">
          <mxGeometry y="128.24" width="387" height="24" as="geometry" />
        </mxCell>
        <mxCell id="QmHlU4ZNDOlEz4AEPFPm-92" value="+selectOne(Wrapper&lt;T&gt;) : T" style="text;strokeColor=none;fillColor=none;align=left;verticalAlign=top;spacingLeft=4;spacingRight=4;overflow=hidden;rotatable=0;points=[[0,0.5],[1,0.5]];portConstraint=eastwest;fontSize=17;" vertex="1" parent="QmHlU4ZNDOlEz4AEPFPm-85">
          <mxGeometry y="152.24" width="387" height="24" as="geometry" />
        </mxCell>
        <mxCell id="QmHlU4ZNDOlEz4AEPFPm-93" value="+deleteById(T) : int" style="text;strokeColor=none;fillColor=none;align=left;verticalAlign=top;spacingLeft=4;spacingRight=4;overflow=hidden;rotatable=0;points=[[0,0.5],[1,0.5]];portConstraint=eastwest;fontSize=17;" vertex="1" parent="QmHlU4ZNDOlEz4AEPFPm-85">
          <mxGeometry y="176.24" width="387" height="24" as="geometry" />
        </mxCell>
        <mxCell id="QmHlU4ZNDOlEz4AEPFPm-94" value="+selectList(Wrapper&lt;T&lt;) : List&gt;T&gt;" style="text;strokeColor=none;fillColor=none;align=left;verticalAlign=top;spacingLeft=4;spacingRight=4;overflow=hidden;rotatable=0;points=[[0,0.5],[1,0.5]];portConstraint=eastwest;fontSize=17;" vertex="1" parent="QmHlU4ZNDOlEz4AEPFPm-85">
          <mxGeometry y="200.24" width="387" height="24" as="geometry" />
        </mxCell>
        <mxCell id="QmHlU4ZNDOlEz4AEPFPm-95" value="+deleteById(Serializable) : int" style="text;strokeColor=none;fillColor=none;align=left;verticalAlign=top;spacingLeft=4;spacingRight=4;overflow=hidden;rotatable=0;points=[[0,0.5],[1,0.5]];portConstraint=eastwest;fontSize=17;" vertex="1" parent="QmHlU4ZNDOlEz4AEPFPm-85">
          <mxGeometry y="224.24" width="387" height="24" as="geometry" />
        </mxCell>
        <mxCell id="QmHlU4ZNDOlEz4AEPFPm-96" value="+updateById(T) : int" style="text;strokeColor=none;fillColor=none;align=left;verticalAlign=top;spacingLeft=4;spacingRight=4;overflow=hidden;rotatable=0;points=[[0,0.5],[1,0.5]];portConstraint=eastwest;fontSize=17;" vertex="1" parent="QmHlU4ZNDOlEz4AEPFPm-85">
          <mxGeometry y="248.24" width="387" height="24" as="geometry" />
        </mxCell>
        <mxCell id="QmHlU4ZNDOlEz4AEPFPm-97" value="+update(T, Wrapper&lt;T&gt;) : int" style="text;strokeColor=none;fillColor=none;align=left;verticalAlign=top;spacingLeft=4;spacingRight=4;overflow=hidden;rotatable=0;points=[[0,0.5],[1,0.5]];portConstraint=eastwest;fontSize=17;" vertex="1" parent="QmHlU4ZNDOlEz4AEPFPm-85">
          <mxGeometry y="272.24" width="387" height="27.76" as="geometry" />
        </mxCell>
        <mxCell id="QmHlU4ZNDOlEz4AEPFPm-98" value="Active" style="swimlane;fontStyle=1;align=center;verticalAlign=top;childLayout=stackLayout;horizontal=1;startSize=24.5;horizontalStack=0;resizeParent=1;resizeParentMax=0;resizeLast=0;collapsible=0;marginBottom=0;fontSize=17;" vertex="1" parent="1">
          <mxGeometry x="333" y="513" width="221" height="460" as="geometry" />
        </mxCell>
        <mxCell id="QmHlU4ZNDOlEz4AEPFPm-99" value="- String createBy" style="text;strokeColor=none;fillColor=none;align=left;verticalAlign=top;spacingLeft=4;spacingRight=4;overflow=hidden;rotatable=0;points=[[0,0.5],[1,0.5]];portConstraint=eastwest;fontSize=17;" vertex="1" parent="QmHlU4ZNDOlEz4AEPFPm-98">
          <mxGeometry y="24.5" width="221" height="25" as="geometry" />
        </mxCell>
        <mxCell id="QmHlU4ZNDOlEz4AEPFPm-100" value="- String title" style="text;strokeColor=none;fillColor=none;align=left;verticalAlign=top;spacingLeft=4;spacingRight=4;overflow=hidden;rotatable=0;points=[[0,0.5],[1,0.5]];portConstraint=eastwest;fontSize=17;" vertex="1" parent="QmHlU4ZNDOlEz4AEPFPm-98">
          <mxGeometry y="49.5" width="221" height="25" as="geometry" />
        </mxCell>
        <mxCell id="QmHlU4ZNDOlEz4AEPFPm-101" value="- String id" style="text;strokeColor=none;fillColor=none;align=left;verticalAlign=top;spacingLeft=4;spacingRight=4;overflow=hidden;rotatable=0;points=[[0,0.5],[1,0.5]];portConstraint=eastwest;fontSize=17;" vertex="1" parent="QmHlU4ZNDOlEz4AEPFPm-98">
          <mxGeometry y="74.5" width="221" height="25" as="geometry" />
        </mxCell>
        <mxCell id="QmHlU4ZNDOlEz4AEPFPm-102" value="- Date createTime" style="text;strokeColor=none;fillColor=none;align=left;verticalAlign=top;spacingLeft=4;spacingRight=4;overflow=hidden;rotatable=0;points=[[0,0.5],[1,0.5]];portConstraint=eastwest;fontSize=17;" vertex="1" parent="QmHlU4ZNDOlEz4AEPFPm-98">
          <mxGeometry y="99.5" width="221" height="25" as="geometry" />
        </mxCell>
        <mxCell id="QmHlU4ZNDOlEz4AEPFPm-103" value="- Date updateTime" style="text;strokeColor=none;fillColor=none;align=left;verticalAlign=top;spacingLeft=4;spacingRight=4;overflow=hidden;rotatable=0;points=[[0,0.5],[1,0.5]];portConstraint=eastwest;fontSize=17;" vertex="1" parent="QmHlU4ZNDOlEz4AEPFPm-98">
          <mxGeometry y="124.5" width="221" height="25" as="geometry" />
        </mxCell>
        <mxCell id="QmHlU4ZNDOlEz4AEPFPm-104" value="- String institutionId" style="text;strokeColor=none;fillColor=none;align=left;verticalAlign=top;spacingLeft=4;spacingRight=4;overflow=hidden;rotatable=0;points=[[0,0.5],[1,0.5]];portConstraint=eastwest;fontSize=17;" vertex="1" parent="QmHlU4ZNDOlEz4AEPFPm-98">
          <mxGeometry y="149.5" width="221" height="25" as="geometry" />
        </mxCell>
        <mxCell id="QmHlU4ZNDOlEz4AEPFPm-105" value="- String detail" style="text;strokeColor=none;fillColor=none;align=left;verticalAlign=top;spacingLeft=4;spacingRight=4;overflow=hidden;rotatable=0;points=[[0,0.5],[1,0.5]];portConstraint=eastwest;fontSize=17;" vertex="1" parent="QmHlU4ZNDOlEz4AEPFPm-98">
          <mxGeometry y="174.5" width="221" height="25" as="geometry" />
        </mxCell>
        <mxCell id="QmHlU4ZNDOlEz4AEPFPm-106" value="- String place" style="text;strokeColor=none;fillColor=none;align=left;verticalAlign=top;spacingLeft=4;spacingRight=4;overflow=hidden;rotatable=0;points=[[0,0.5],[1,0.5]];portConstraint=eastwest;fontSize=17;" vertex="1" parent="QmHlU4ZNDOlEz4AEPFPm-98">
          <mxGeometry y="199.5" width="221" height="25" as="geometry" />
        </mxCell>
        <mxCell id="QmHlU4ZNDOlEz4AEPFPm-107" value="- String type" style="text;strokeColor=none;fillColor=none;align=left;verticalAlign=top;spacingLeft=4;spacingRight=4;overflow=hidden;rotatable=0;points=[[0,0.5],[1,0.5]];portConstraint=eastwest;fontSize=17;" vertex="1" parent="QmHlU4ZNDOlEz4AEPFPm-98">
          <mxGeometry y="224.5" width="221" height="25" as="geometry" />
        </mxCell>
        <mxCell id="QmHlU4ZNDOlEz4AEPFPm-108" value="- Date endTime" style="text;strokeColor=none;fillColor=none;align=left;verticalAlign=top;spacingLeft=4;spacingRight=4;overflow=hidden;rotatable=0;points=[[0,0.5],[1,0.5]];portConstraint=eastwest;fontSize=17;" vertex="1" parent="QmHlU4ZNDOlEz4AEPFPm-98">
          <mxGeometry y="249.5" width="221" height="25" as="geometry" />
        </mxCell>
        <mxCell id="QmHlU4ZNDOlEz4AEPFPm-109" value="- String updateBy" style="text;strokeColor=none;fillColor=none;align=left;verticalAlign=top;spacingLeft=4;spacingRight=4;overflow=hidden;rotatable=0;points=[[0,0.5],[1,0.5]];portConstraint=eastwest;fontSize=17;" vertex="1" parent="QmHlU4ZNDOlEz4AEPFPm-98">
          <mxGeometry y="274.5" width="221" height="25" as="geometry" />
        </mxCell>
        <mxCell id="QmHlU4ZNDOlEz4AEPFPm-110" value="- Date startTime" style="text;strokeColor=none;fillColor=none;align=left;verticalAlign=top;spacingLeft=4;spacingRight=4;overflow=hidden;rotatable=0;points=[[0,0.5],[1,0.5]];portConstraint=eastwest;fontSize=17;" vertex="1" parent="QmHlU4ZNDOlEz4AEPFPm-98">
          <mxGeometry y="299.5" width="221" height="25" as="geometry" />
        </mxCell>
        <mxCell id="QmHlU4ZNDOlEz4AEPFPm-111" value="- String posterUrl" style="text;strokeColor=none;fillColor=none;align=left;verticalAlign=top;spacingLeft=4;spacingRight=4;overflow=hidden;rotatable=0;points=[[0,0.5],[1,0.5]];portConstraint=eastwest;fontSize=17;" vertex="1" parent="QmHlU4ZNDOlEz4AEPFPm-98">
          <mxGeometry y="324.5" width="221" height="25" as="geometry" />
        </mxCell>
        <mxCell id="QmHlU4ZNDOlEz4AEPFPm-112" style="line;strokeWidth=1;fillColor=none;align=left;verticalAlign=middle;spacingTop=-1;spacingLeft=3;spacingRight=3;rotatable=0;labelPosition=right;points=[];portConstraint=eastwest;strokeColor=inherit;fontSize=17;" vertex="1" parent="QmHlU4ZNDOlEz4AEPFPm-98">
          <mxGeometry y="349.5" width="221" height="8" as="geometry" />
        </mxCell>
        <mxCell id="QmHlU4ZNDOlEz4AEPFPm-113" value="+equals(Object) : boolean" style="text;strokeColor=none;fillColor=none;align=left;verticalAlign=top;spacingLeft=4;spacingRight=4;overflow=hidden;rotatable=0;points=[[0,0.5],[1,0.5]];portConstraint=eastwest;fontSize=17;" vertex="1" parent="QmHlU4ZNDOlEz4AEPFPm-98">
          <mxGeometry y="357.5" width="221" height="25" as="geometry" />
        </mxCell>
        <mxCell id="QmHlU4ZNDOlEz4AEPFPm-114" value="+hashCode() : int" style="text;strokeColor=none;fillColor=none;align=left;verticalAlign=top;spacingLeft=4;spacingRight=4;overflow=hidden;rotatable=0;points=[[0,0.5],[1,0.5]];portConstraint=eastwest;fontSize=17;" vertex="1" parent="QmHlU4ZNDOlEz4AEPFPm-98">
          <mxGeometry y="382.5" width="221" height="25" as="geometry" />
        </mxCell>
        <mxCell id="QmHlU4ZNDOlEz4AEPFPm-115" value="+toString() : String" style="text;strokeColor=none;fillColor=none;align=left;verticalAlign=top;spacingLeft=4;spacingRight=4;overflow=hidden;rotatable=0;points=[[0,0.5],[1,0.5]];portConstraint=eastwest;fontSize=17;" vertex="1" parent="QmHlU4ZNDOlEz4AEPFPm-98">
          <mxGeometry y="407.5" width="221" height="25" as="geometry" />
        </mxCell>
        <mxCell id="QmHlU4ZNDOlEz4AEPFPm-116" value="#canEqual(Object) : boolean" style="text;strokeColor=none;fillColor=none;align=left;verticalAlign=top;spacingLeft=4;spacingRight=4;overflow=hidden;rotatable=0;points=[[0,0.5],[1,0.5]];portConstraint=eastwest;fontSize=17;" vertex="1" parent="QmHlU4ZNDOlEz4AEPFPm-98">
          <mxGeometry y="432.5" width="221" height="27.5" as="geometry" />
        </mxCell>
        <mxCell id="QmHlU4ZNDOlEz4AEPFPm-117" value="UserServiceImpl" style="swimlane;fontStyle=1;align=center;verticalAlign=top;childLayout=stackLayout;horizontal=1;startSize=25.818181818181817;horizontalStack=0;resizeParent=1;resizeParentMax=0;resizeLast=0;collapsible=0;marginBottom=0;fontSize=17;" vertex="1" parent="1">
          <mxGeometry x="1010" y="513" width="174" height="142.8181818181818" as="geometry" />
        </mxCell>
        <mxCell id="QmHlU4ZNDOlEz4AEPFPm-118" value="# M baseMapper" style="text;strokeColor=none;fillColor=none;align=left;verticalAlign=top;spacingLeft=4;spacingRight=4;overflow=hidden;rotatable=0;points=[[0,0.5],[1,0.5]];portConstraint=eastwest;fontSize=17;" vertex="1" parent="QmHlU4ZNDOlEz4AEPFPm-117">
          <mxGeometry y="25.818181818181817" width="174" height="26" as="geometry" />
        </mxCell>
        <mxCell id="QmHlU4ZNDOlEz4AEPFPm-119" value="# Class&lt;T&gt; entityClass" style="text;strokeColor=none;fillColor=none;align=left;verticalAlign=top;spacingLeft=4;spacingRight=4;overflow=hidden;rotatable=0;points=[[0,0.5],[1,0.5]];portConstraint=eastwest;fontSize=17;" vertex="1" parent="QmHlU4ZNDOlEz4AEPFPm-117">
          <mxGeometry y="51.81818181818181" width="174" height="26" as="geometry" />
        </mxCell>
        <mxCell id="QmHlU4ZNDOlEz4AEPFPm-120" value="Class&lt;T&gt; entityClass" style="text;strokeColor=none;fillColor=none;align=left;verticalAlign=top;spacingLeft=4;spacingRight=4;overflow=hidden;rotatable=0;points=[[0,0.5],[1,0.5]];portConstraint=eastwest;fontSize=17;" vertex="1" parent="QmHlU4ZNDOlEz4AEPFPm-117">
          <mxGeometry y="77.81818181818181" width="174" height="26" as="geometry" />
        </mxCell>
        <mxCell id="QmHlU4ZNDOlEz4AEPFPm-121" value="M baseMapper" style="text;strokeColor=none;fillColor=none;align=left;verticalAlign=top;spacingLeft=4;spacingRight=4;overflow=hidden;rotatable=0;points=[[0,0.5],[1,0.5]];portConstraint=eastwest;fontSize=17;" vertex="1" parent="QmHlU4ZNDOlEz4AEPFPm-117">
          <mxGeometry y="103.81818181818181" width="174" height="26" as="geometry" />
        </mxCell>
        <mxCell id="QmHlU4ZNDOlEz4AEPFPm-122" style="line;strokeWidth=1;fillColor=none;align=left;verticalAlign=middle;spacingTop=-1;spacingLeft=3;spacingRight=3;rotatable=0;labelPosition=right;points=[];portConstraint=eastwest;strokeColor=inherit;fontSize=17;" vertex="1" parent="QmHlU4ZNDOlEz4AEPFPm-117">
          <mxGeometry y="129.8181818181818" width="174" height="13" as="geometry" />
        </mxCell>
        <mxCell id="QmHlU4ZNDOlEz4AEPFPm-123" value="InstitutionServiceImpl" style="swimlane;fontStyle=1;align=center;verticalAlign=top;childLayout=stackLayout;horizontal=1;startSize=25.818181818181817;horizontalStack=0;resizeParent=1;resizeParentMax=0;resizeLast=0;collapsible=0;marginBottom=0;fontSize=17;" vertex="1" parent="1">
          <mxGeometry x="-270" y="513" width="192" height="142.8181818181818" as="geometry" />
        </mxCell>
        <mxCell id="QmHlU4ZNDOlEz4AEPFPm-124" value="# M baseMapper" style="text;strokeColor=none;fillColor=none;align=left;verticalAlign=top;spacingLeft=4;spacingRight=4;overflow=hidden;rotatable=0;points=[[0,0.5],[1,0.5]];portConstraint=eastwest;fontSize=17;" vertex="1" parent="QmHlU4ZNDOlEz4AEPFPm-123">
          <mxGeometry y="25.818181818181817" width="192" height="26" as="geometry" />
        </mxCell>
        <mxCell id="QmHlU4ZNDOlEz4AEPFPm-125" value="# Class&lt;T&gt; entityClass" style="text;strokeColor=none;fillColor=none;align=left;verticalAlign=top;spacingLeft=4;spacingRight=4;overflow=hidden;rotatable=0;points=[[0,0.5],[1,0.5]];portConstraint=eastwest;fontSize=17;" vertex="1" parent="QmHlU4ZNDOlEz4AEPFPm-123">
          <mxGeometry y="51.81818181818181" width="192" height="26" as="geometry" />
        </mxCell>
        <mxCell id="QmHlU4ZNDOlEz4AEPFPm-126" value="Class&lt;T&gt; entityClass" style="text;strokeColor=none;fillColor=none;align=left;verticalAlign=top;spacingLeft=4;spacingRight=4;overflow=hidden;rotatable=0;points=[[0,0.5],[1,0.5]];portConstraint=eastwest;fontSize=17;" vertex="1" parent="QmHlU4ZNDOlEz4AEPFPm-123">
          <mxGeometry y="77.81818181818181" width="192" height="26" as="geometry" />
        </mxCell>
        <mxCell id="QmHlU4ZNDOlEz4AEPFPm-127" value="M baseMapper" style="text;strokeColor=none;fillColor=none;align=left;verticalAlign=top;spacingLeft=4;spacingRight=4;overflow=hidden;rotatable=0;points=[[0,0.5],[1,0.5]];portConstraint=eastwest;fontSize=17;" vertex="1" parent="QmHlU4ZNDOlEz4AEPFPm-123">
          <mxGeometry y="103.81818181818181" width="192" height="26" as="geometry" />
        </mxCell>
        <mxCell id="QmHlU4ZNDOlEz4AEPFPm-128" style="line;strokeWidth=1;fillColor=none;align=left;verticalAlign=middle;spacingTop=-1;spacingLeft=3;spacingRight=3;rotatable=0;labelPosition=right;points=[];portConstraint=eastwest;strokeColor=inherit;fontSize=17;" vertex="1" parent="QmHlU4ZNDOlEz4AEPFPm-123">
          <mxGeometry y="129.8181818181818" width="192" height="13" as="geometry" />
        </mxCell>
        <mxCell id="QmHlU4ZNDOlEz4AEPFPm-129" value="" style="startArrow=open;startSize=12;endArrow=none;exitX=0;exitY=0.5;entryX=1.004;entryY=1.022;rounded=0;fontSize=17;entryDx=0;entryDy=0;entryPerimeter=0;exitDx=0;exitDy=0;" edge="1" parent="1" source="QmHlU4ZNDOlEz4AEPFPm-58" target="QmHlU4ZNDOlEz4AEPFPm-6">
          <mxGeometry relative="1" as="geometry" />
        </mxCell>
        <mxCell id="QmHlU4ZNDOlEz4AEPFPm-130" value="" style="dashed=1;startArrow=none;endArrow=block;endSize=16;endFill=0;exitX=0.4991469109195402;exitY=0;entryX=0.5013266509433962;entryY=1;rounded=0;fontSize=17;" edge="1" parent="1" source="QmHlU4ZNDOlEz4AEPFPm-117" target="QmHlU4ZNDOlEz4AEPFPm-53">
          <mxGeometry relative="1" as="geometry" />
        </mxCell>
        <mxCell id="QmHlU4ZNDOlEz4AEPFPm-131" value="" style="startArrow=open;startSize=12;endArrow=none;exitX=0.49973131613756616;exitY=0;entryX=0.4994357638888889;entryY=1;rounded=0;fontSize=17;" edge="1" parent="1" source="QmHlU4ZNDOlEz4AEPFPm-40" target="QmHlU4ZNDOlEz4AEPFPm-123">
          <mxGeometry relative="1" as="geometry" />
        </mxCell>
        <mxCell id="QmHlU4ZNDOlEz4AEPFPm-132" value="" style="dashed=1;startArrow=none;endArrow=block;endSize=16;endFill=0;exitX=0.4994357638888889;exitY=0;entryX=0.5015035377358491;entryY=1;rounded=0;fontSize=17;" edge="1" parent="1" source="QmHlU4ZNDOlEz4AEPFPm-123" target="QmHlU4ZNDOlEz4AEPFPm-30">
          <mxGeometry relative="1" as="geometry" />
        </mxCell>
        <mxCell id="QmHlU4ZNDOlEz4AEPFPm-133" value="" style="startArrow=open;startSize=12;endArrow=none;exitX=0.4996073082010582;exitY=0;entryX=0.4991469109195402;entryY=1;rounded=0;fontSize=17;" edge="1" parent="1" source="QmHlU4ZNDOlEz4AEPFPm-85" target="QmHlU4ZNDOlEz4AEPFPm-117">
          <mxGeometry relative="1" as="geometry" />
        </mxCell>
        <mxCell id="QmHlU4ZNDOlEz4AEPFPm-134" value="" style="startArrow=open;startSize=12;endArrow=none;exitX=0;exitY=0.5;entryX=0.49973131613756616;entryY=1;rounded=0;fontSize=17;exitDx=0;exitDy=0;" edge="1" parent="1" source="QmHlU4ZNDOlEz4AEPFPm-27" target="QmHlU4ZNDOlEz4AEPFPm-40">
          <mxGeometry relative="1" as="geometry" />
        </mxCell>
        <mxCell id="QmHlU4ZNDOlEz4AEPFPm-135" value="" style="startArrow=open;startSize=12;endArrow=none;exitX=0.98;exitY=1.083;entryX=0.4996073082010582;entryY=1;rounded=0;fontSize=17;exitDx=0;exitDy=0;exitPerimeter=0;" edge="1" parent="1" source="QmHlU4ZNDOlEz4AEPFPm-79" target="QmHlU4ZNDOlEz4AEPFPm-85">
          <mxGeometry relative="1" as="geometry" />
        </mxCell>
        <mxCell id="QmHlU4ZNDOlEz4AEPFPm-136" value="" style="startArrow=open;startSize=12;endArrow=none;exitX=1;exitY=0.5;entryX=-0.001;entryY=0.022;rounded=0;fontSize=17;exitDx=0;exitDy=0;entryDx=0;entryDy=0;entryPerimeter=0;" edge="1" parent="1" source="QmHlU4ZNDOlEz4AEPFPm-35" target="QmHlU4ZNDOlEz4AEPFPm-7">
          <mxGeometry relative="1" as="geometry" />
        </mxCell>
        <mxCell id="QmHlU4ZNDOlEz4AEPFPm-137" value="" style="startArrow=none;endArrow=none;exitX=1;exitY=0.5;entryX=0;entryY=0.5;rounded=0;fontSize=17;exitDx=0;exitDy=0;entryDx=0;entryDy=0;" edge="1" parent="1" source="QmHlU4ZNDOlEz4AEPFPm-29" target="QmHlU4ZNDOlEz4AEPFPm-82">
          <mxGeometry relative="1" as="geometry" />
        </mxCell>
        <mxCell id="QmHlU4ZNDOlEz4AEPFPm-138" value="m" style="edgeLabel;resizable=0;labelBackgroundColor=none;fontSize=17;align=right;verticalAlign=bottom;" vertex="1" parent="QmHlU4ZNDOlEz4AEPFPm-137">
          <mxGeometry x="-1" relative="1" as="geometry">
            <mxPoint x="29" as="offset" />
          </mxGeometry>
        </mxCell>
        <mxCell id="QmHlU4ZNDOlEz4AEPFPm-139" value="n" style="edgeLabel;resizable=0;labelBackgroundColor=none;fontSize=17;align=left;verticalAlign=top;" vertex="1" parent="QmHlU4ZNDOlEz4AEPFPm-137">
          <mxGeometry x="1" relative="1" as="geometry">
            <mxPoint x="-16" y="-2" as="offset" />
          </mxGeometry>
        </mxCell>
        <mxCell id="QmHlU4ZNDOlEz4AEPFPm-140" value="" style="startArrow=none;endArrow=none;exitX=0.5;exitY=0;entryX=-0.005;entryY=0.1;rounded=0;fontSize=17;exitDx=0;exitDy=0;entryDx=0;entryDy=0;entryPerimeter=0;" edge="1" parent="1" source="QmHlU4ZNDOlEz4AEPFPm-12" target="QmHlU4ZNDOlEz4AEPFPm-100">
          <mxGeometry relative="1" as="geometry" />
        </mxCell>
        <mxCell id="QmHlU4ZNDOlEz4AEPFPm-141" value="1" style="edgeLabel;resizable=0;labelBackgroundColor=none;fontSize=17;align=left;verticalAlign=bottom;" vertex="1" parent="QmHlU4ZNDOlEz4AEPFPm-140">
          <mxGeometry x="-1" relative="1" as="geometry">
            <mxPoint x="-3" y="-4" as="offset" />
          </mxGeometry>
        </mxCell>
        <mxCell id="QmHlU4ZNDOlEz4AEPFPm-142" value="n" style="edgeLabel;resizable=0;labelBackgroundColor=none;fontSize=17;align=right;verticalAlign=top;" vertex="1" parent="QmHlU4ZNDOlEz4AEPFPm-140">
          <mxGeometry x="1" relative="1" as="geometry">
            <mxPoint x="-2" y="2" as="offset" />
          </mxGeometry>
        </mxCell>
        <mxCell id="QmHlU4ZNDOlEz4AEPFPm-143" value="" style="startArrow=none;endArrow=none;entryX=1;entryY=0.5;rounded=0;fontSize=17;entryDx=0;entryDy=0;exitX=0.5;exitY=0;exitDx=0;exitDy=0;" edge="1" parent="1" source="QmHlU4ZNDOlEz4AEPFPm-63" target="QmHlU4ZNDOlEz4AEPFPm-99">
          <mxGeometry relative="1" as="geometry">
            <mxPoint x="716" y="650" as="sourcePoint" />
          </mxGeometry>
        </mxCell>
        <mxCell id="QmHlU4ZNDOlEz4AEPFPm-144" value="n" style="edgeLabel;resizable=0;labelBackgroundColor=none;fontSize=17;align=left;verticalAlign=bottom;" vertex="1" parent="QmHlU4ZNDOlEz4AEPFPm-143">
          <mxGeometry x="-1" relative="1" as="geometry">
            <mxPoint x="-19" y="-12" as="offset" />
          </mxGeometry>
        </mxCell>
        <mxCell id="QmHlU4ZNDOlEz4AEPFPm-145" value="m" style="edgeLabel;resizable=0;labelBackgroundColor=none;fontSize=17;align=right;verticalAlign=top;" vertex="1" parent="QmHlU4ZNDOlEz4AEPFPm-143">
          <mxGeometry x="1" relative="1" as="geometry">
            <mxPoint x="26" y="1" as="offset" />
          </mxGeometry>
        </mxCell>
      </root>
    </mxGraphModel>
  </diagram>
</mxfile>
